<svg id="svg" version="1.1" xmlns="http://www.w3.org/2000/svg" xmlns:xlink="http://www.w3.org/1999/xlink" width="400" height="400" viewBox="0, 0, 400,400"><g id="svgg"><path id="path0" d="M185.200 94.400 L 185.200 123.200 146.200 123.200 L 107.200 123.200 107.200 138.000 L 107.200 152.800 129.290 152.800 L 151.381 152.800 168.290 162.452 L 185.200 172.103 185.200 253.252 L 185.200 334.400 199.999 334.400 L 214.798 334.400 214.899 253.154 L 215.000 171.907 231.200 162.376 L 247.400 152.844 270.100 152.822 L 292.800 152.800 292.800 138.000 L 292.800 123.200 253.800 123.200 L 214.800 123.200 214.800 94.400 L 214.800 65.600 200.000 65.600 L 185.200 65.600 185.200 94.400 M185.200 156.210 L 185.200 159.621 183.900 158.954 C 181.470 157.709,173.600 153.134,173.600 152.967 C 173.600 152.875,176.210 152.800,179.400 152.800 L 185.200 152.800 185.200 156.210 M225.389 153.334 C 224.955 153.628,222.800 154.917,220.600 156.199 C 218.400 157.480,216.195 158.790,215.700 159.110 L 214.800 159.692 214.800 156.246 L 214.800 152.800 220.489 152.800 C 225.362 152.800,226.065 152.877,225.389 153.334 " stroke="none" fill="#040404" fill-rule="evenodd"></path><path id="path1" d="M0.000 200.000 L 0.000 400.000 200.000 400.000 L 400.000 400.000 400.000 200.000 L 400.000 0.000 200.000 0.000 L 0.000 0.000 0.000 200.000 M214.897 94.100 L 215.000 123.000 254.105 123.102 L 293.210 123.204 293.105 138.102 L 293.000 153.000 270.121 153.103 L 247.241 153.207 232.121 162.061 C 223.804 166.931,216.505 171.262,215.900 171.685 L 214.800 172.454 214.800 253.627 L 214.800 334.800 200.001 334.800 L 185.202 334.800 185.101 253.500 L 185.000 172.200 168.407 162.703 L 151.814 153.207 129.407 153.103 L 107.000 153.000 106.895 138.102 L 106.790 123.204 145.895 123.102 L 185.000 123.000 185.103 94.100 L 185.205 65.200 200.000 65.200 L 214.795 65.200 214.897 94.100 M175.400 153.928 C 178.152 155.592,184.671 159.200,184.925 159.200 C 185.076 159.200,185.200 157.850,185.200 156.200 L 185.200 153.200 179.700 153.201 C 174.214 153.203,174.203 153.205,175.400 153.928 M214.800 156.200 C 214.800 157.850,214.875 159.200,214.967 159.200 C 215.213 159.200,224.136 153.953,224.580 153.547 C 224.797 153.349,222.778 153.200,219.880 153.200 L 214.800 153.200 214.800 156.200 " stroke="none" fill="#fbfbfb" fill-rule="evenodd"></path><path id="path2" d="M192.500 65.499 C 196.625 65.564,203.375 65.564,207.500 65.499 C 211.625 65.434,208.250 65.381,200.000 65.381 C 191.750 65.381,188.375 65.434,192.500 65.499 M192.500 334.699 C 196.625 334.764,203.375 334.764,207.500 334.699 C 211.625 334.634,208.250 334.581,200.000 334.581 C 191.750 334.581,188.375 334.634,192.500 334.699 " stroke="none" fill="#747474" fill-rule="evenodd"></path><path id="path3" d="M118.328 153.100 C 124.559 153.162,134.639 153.162,140.728 153.100 C 146.818 153.038,141.720 152.987,129.400 152.987 C 117.080 152.987,112.098 153.038,118.328 153.100 M176.518 153.098 C 178.233 153.173,180.933 153.172,182.518 153.097 C 184.103 153.021,182.700 152.959,179.400 152.960 C 176.100 152.961,174.803 153.022,176.518 153.098 M214.845 152.979 C 215.124 153.257,225.214 153.320,225.489 153.045 C 225.623 152.910,223.243 152.800,220.200 152.800 C 217.157 152.800,214.747 152.880,214.845 152.979 M258.672 153.100 C 264.871 153.162,275.131 153.162,281.472 153.100 C 287.812 153.038,282.740 152.987,270.200 152.987 C 257.660 152.987,252.472 153.038,258.672 153.100 " stroke="none" fill="#bcbcbc" fill-rule="evenodd"></path><path id="path4" d="M106.981 138.000 C 106.981 146.250,107.034 149.625,107.099 145.500 C 107.164 141.375,107.164 134.625,107.099 130.500 C 107.034 126.375,106.981 129.750,106.981 138.000 M292.981 138.000 C 292.981 146.250,293.034 149.625,293.099 145.500 C 293.164 141.375,293.164 134.625,293.099 130.500 C 293.034 126.375,292.981 129.750,292.981 138.000 " stroke="none" fill="#8c8c8c" fill-rule="evenodd"></path></g></svg>