<svg id="svg" version="1.1" xmlns="http://www.w3.org/2000/svg" xmlns:xlink="http://www.w3.org/1999/xlink" width="400" height="400" viewBox="0, 0, 400,400"><g id="svgg"><path id="path0" d="M176.800 43.200 L 176.800 86.400 118.391 86.400 L 59.982 86.400 60.091 108.500 L 60.200 130.600 93.469 130.702 L 126.738 130.805 136.069 136.140 C 141.201 139.074,146.300 141.983,147.400 142.605 C 151.676 145.020,152.554 145.523,159.264 149.400 C 163.072 151.600,166.846 153.760,167.651 154.200 C 168.455 154.640,170.843 155.990,172.957 157.200 L 176.800 159.400 176.800 279.700 L 176.800 400.000 199.000 400.000 L 221.200 400.000 221.204 279.700 L 221.207 159.400 227.765 155.600 C 231.372 153.510,234.258 151.695,234.179 151.567 C 234.100 151.438,234.275 151.333,234.569 151.333 C 235.246 151.333,241.600 147.624,241.600 147.229 C 241.600 147.066,241.842 146.933,242.138 146.933 C 242.766 146.933,247.661 144.049,248.094 143.424 C 248.256 143.191,248.391 143.128,248.394 143.284 C 248.400 143.566,258.409 137.776,258.797 137.267 C 258.909 137.120,259.270 136.942,259.600 136.870 C 259.930 136.799,260.260 136.574,260.333 136.370 C 260.407 136.167,260.653 136.000,260.881 136.000 C 261.109 136.000,263.273 134.830,265.690 133.400 L 270.084 130.800 304.042 130.800 L 338.000 130.800 338.000 108.600 L 338.000 86.400 279.600 86.400 L 221.200 86.400 221.200 43.200 L 221.200 0.000 199.000 0.000 L 176.800 0.000 176.800 43.200 M176.847 135.100 C 176.894 139.336,176.844 140.475,176.600 140.728 C 176.497 140.836,159.738 131.398,159.233 130.948 C 159.142 130.867,163.057 130.800,167.933 130.800 L 176.800 130.800 176.847 135.100 M238.400 131.133 C 238.400 131.317,238.173 131.467,237.896 131.467 C 237.619 131.467,234.154 133.361,230.196 135.675 C 226.238 137.990,222.595 140.096,222.100 140.356 L 221.200 140.828 221.200 135.814 L 221.200 130.800 229.800 130.800 C 234.530 130.800,238.400 130.950,238.400 131.133 " stroke="none" fill="#040404" fill-rule="evenodd"></path><path id="path1" d="" stroke="none" fill="#1c1c1c" fill-rule="evenodd"></path><path id="path2" d="M221.298 43.100 L 221.200 86.400 279.500 86.301 L 337.800 86.203 279.702 86.100 L 221.604 85.997 221.500 42.899 L 221.396 -0.200 221.298 43.100 M176.400 81.199 L 176.400 85.997 118.100 86.100 L 59.800 86.203 118.300 86.301 L 176.800 86.400 176.800 81.400 C 176.800 78.650,176.710 76.400,176.600 76.400 C 176.490 76.400,176.400 78.559,176.400 81.199 M338.096 108.698 L 338.000 130.796 303.900 130.900 L 269.800 131.005 303.913 131.102 C 330.906 131.180,338.065 131.096,338.216 130.700 C 338.322 130.425,338.360 120.390,338.300 108.400 L 338.193 86.600 338.096 108.698 M76.730 131.100 C 86.041 131.160,101.161 131.160,110.330 131.100 C 119.498 131.040,111.880 130.991,93.400 130.991 C 74.920 130.991,67.418 131.040,76.730 131.100 M159.820 131.154 C 160.234 131.540,176.382 140.800,176.641 140.800 C 176.729 140.800,176.800 138.550,176.800 135.800 L 176.800 130.800 168.120 130.800 C 163.065 130.800,159.599 130.948,159.820 131.154 M221.286 135.900 L 221.373 141.000 221.499 136.100 L 221.625 131.200 229.289 131.200 C 236.288 131.200,236.886 131.254,236.176 131.822 C 235.413 132.434,235.414 132.437,236.200 132.035 C 238.470 130.876,238.132 130.812,229.700 130.806 L 221.200 130.800 221.286 135.900 M176.400 135.600 C 176.400 138.020,176.304 140.000,176.187 140.000 C 175.917 140.000,161.933 131.981,161.420 131.532 C 161.211 131.350,164.496 131.200,168.720 131.200 L 176.400 131.200 176.400 135.600 M130.800 133.331 C 130.800 133.655,168.839 155.596,173.200 157.788 C 177.445 159.921,171.622 156.486,153.200 145.991 C 141.870 139.535,132.195 133.996,131.700 133.681 C 131.205 133.366,130.800 133.208,130.800 133.331 M228.521 136.134 C 226.278 137.490,224.298 138.771,224.121 138.979 C 223.944 139.187,224.250 139.085,224.800 138.750 C 225.350 138.416,227.465 137.188,229.500 136.022 C 231.535 134.855,233.200 133.833,233.200 133.750 C 233.200 133.386,232.352 133.818,228.521 136.134 M244.111 146.094 C 233.943 152.068,225.680 157.014,225.751 157.084 C 225.821 157.154,230.451 154.536,236.039 151.265 C 241.628 147.994,249.800 143.209,254.200 140.633 C 261.311 136.468,263.380 135.162,262.780 135.216 C 262.681 135.225,254.280 140.120,244.111 146.094 M221.648 159.342 C 221.317 159.741,221.225 191.548,221.300 280.042 L 221.401 400.200 221.501 279.980 C 221.577 187.120,221.709 159.651,222.080 159.280 C 222.344 159.016,222.456 158.800,222.329 158.800 C 222.202 158.800,221.896 159.044,221.648 159.342 " stroke="none" fill="#343434" fill-rule="evenodd"></path><path id="path3" d="" stroke="none" fill="#0c0c0c" fill-rule="evenodd"></path><path id="path4" d="" stroke="none" fill="#141414" fill-rule="evenodd"></path></g></svg>